<svg width="490" height="182" viewBox="0 0 490 182" fill="none" xmlns="http://www.w3.org/2000/svg">
<g id="BODY">
<g id="Vector 1">
<path d="M35.6947 43.4297C27.2263 43.6182 18.9784 42.9094 10.9132 41.0016L35.6947 43.4297C115.072 41.663 213.832 -38.937 363.318 50.0937C372.908 51.2901 379.555 51.8635 383.13 52.3963C408.535 52.9387 444.095 50.2454 485.62 81.3918C446.048 63.2679 410.631 50.3133 372.128 58.1841C366.791 59.7177 359.914 61.7171 351.455 64.3676C358.468 61.6032 365.346 59.5706 372.128 58.1841C386.097 54.1704 389.517 53.3481 383.13 52.3963C375.597 52.2354 368.957 51.7901 363.318 50.0937C268.841 3.91647 210.026 -1.66977 67.2387 42.4548L50.5173 43.8121L35.6947 43.4297Z" fill="white"/>
<path d="M363.318 50.0937C197.884 -48.4354 94.5763 60.7916 10.9132 41.0016L35.6947 43.4297L50.5173 43.8121L67.2387 42.4548C210.026 -1.66977 268.841 3.91647 363.318 50.0937ZM363.318 50.0937C387.971 57.5111 431.782 41.01 485.62 81.3918C439.077 60.0754 398.283 45.9098 351.455 64.3676C394.446 50.8968 396.584 54.2441 363.318 50.0937Z" stroke="white" stroke-width="4" stroke-linecap="round" stroke-linejoin="round"/>
</g>
<path id="Vector 2" d="M237.593 22.1717C161.758 15.1291 133.193 29.9892 79.264 50.6373C107.475 48.0575 122.716 48.0286 147.343 56.4625C137.168 49.4701 130.161 46.4791 115.436 42.7547C144.027 26.8781 178.25 22.675 237.593 22.1717Z" fill="white" stroke="white" stroke-width="4" stroke-linecap="round" stroke-linejoin="round"/>
<path id="Vector 3" d="M10.3904 91.5828C-8.29314 68.3832 16.9314 68.0168 8.70566 56.2763C102.096 62.3791 151.939 66.7531 248.089 62.4525C38.1967 77.3813 -4.59429 39.997 10.3904 91.5828Z" fill="white" stroke="white" stroke-width="4" stroke-linecap="round" stroke-linejoin="round"/>
</g>
<path id="HOLIC" d="M210.502 147.244C209.13 146.432 207.073 146.026 204.329 146.026C200.83 146.026 196.896 146.642 192.529 147.874C188.05 149.106 184.089 150.729 180.646 152.745C182.829 141.351 183.921 132.743 183.921 126.92V124.61C181.009 124.974 173.997 125.744 162.883 126.92C163.387 134.954 165.094 143.409 168.006 152.283C161.287 149.26 154.498 147.748 147.64 147.748C143.496 147.748 140.543 148.462 138.779 149.89L139.031 140.105C139.955 139.686 141.075 139.476 142.391 139.476C144.546 139.476 146.786 140.021 149.109 141.113C147.066 135.738 145.47 127.508 144.322 116.422C143.426 107.576 142.979 99.0931 142.979 90.9746C142.979 88.875 142.083 87.4753 140.291 86.7754C140.207 86.7194 138.415 86.3695 134.916 85.7256C134.216 85.6136 133.866 84.4658 133.866 82.2822C133.866 82.0583 133.894 81.7223 133.95 81.2744C134.006 80.7985 134.034 80.5046 134.034 80.3926C135.014 80.5605 147.206 81.6243 170.609 83.584C167.726 90.1908 165.752 96.2936 164.688 101.893C163.905 105.98 163.443 111.089 163.303 117.22C172.653 117.22 179.582 117.444 184.089 117.892C184.145 117.332 184.173 116.646 184.173 115.834C184.173 105.84 181.079 96.5876 174.893 88.0771C184.691 86.5654 195.763 84.6898 208.108 82.4502C208.192 82.4502 208.318 82.9961 208.486 84.0879C208.682 85.1797 208.78 86.2155 208.78 87.1953C208.78 88.4271 208.612 89.2529 208.276 89.6729C204.077 91.0446 201.978 92.4863 201.978 93.998C201.978 93.4941 202.257 95.0758 202.817 98.7432C203.405 102.382 203.699 106.652 203.699 111.551C203.699 117.234 203.293 122.567 202.481 127.55C201.67 132.505 200.648 135.906 199.416 137.754C201.628 136.326 203.923 135.612 206.303 135.612C207.479 135.612 208.472 135.752 209.284 136.032L210.502 147.244ZM280.881 106.134C280.881 111.369 279.537 117.528 276.85 124.61C273.742 132.757 269.851 139.392 265.176 144.515C258.793 151.485 251.472 154.971 243.214 154.971C235.627 154.971 228.965 151.653 223.226 145.019C217.291 138.132 214.323 129.831 214.323 120.117C214.323 110.851 217.389 102.816 223.52 96.0137C230.266 88.5391 239.015 84.8018 249.765 84.8018C270.509 84.8018 280.881 91.9124 280.881 106.134ZM269.459 117.808C269.459 113.888 267.247 110.585 262.824 107.897C258.513 105.21 253.32 103.866 247.245 103.866C241.758 103.866 236.411 105.406 231.204 108.485C225.745 111.705 223.016 115.246 223.016 119.109C223.016 123.617 225.549 127.354 230.616 130.321C235.011 132.869 239.701 134.143 244.684 134.143C250.954 134.143 256.679 132.365 261.858 128.81C266.925 125.366 269.459 121.699 269.459 117.808ZM349.538 125.66C349.538 129.887 348.894 134.017 347.606 138.048C346.683 140.959 345.409 143.787 343.785 146.53C342.889 147.93 342.007 149.344 341.14 150.771C340.916 151.135 340.538 151.275 340.006 151.191C329.676 149.624 319.85 148.84 310.527 148.84C298.21 148.84 290.805 150.534 288.313 153.921L286.424 143.339C287.936 142.331 289.881 141.827 292.261 141.827C293.465 141.827 294.85 141.995 296.418 142.331C292.555 132.673 290.623 119.375 290.623 102.438C290.623 101.179 290.651 99.2611 290.707 96.6855C290.791 94.082 290.833 92.0944 290.833 90.7227C290.833 88.3431 289.559 86.9154 287.012 86.4395C286.088 86.3275 284.66 86.0895 282.729 85.7256C281.973 85.5296 281.595 84.1859 281.595 81.6943C281.595 81.0505 281.651 80.4486 281.763 79.8887C282.295 80.1406 294.892 81.4004 319.556 83.668C317.176 88.5111 315.007 94.8099 313.047 102.564C310.947 110.767 309.897 117.514 309.897 122.805C309.897 135.486 314.741 141.827 324.427 141.827C331.453 141.827 336.744 140.497 340.3 137.838C342.903 135.906 344.205 133.737 344.205 131.329C344.205 130.069 343.897 129.439 343.281 129.439C343.141 129.439 343.001 129.495 342.861 129.607C338.578 132.575 334.183 134.059 329.676 134.059C325.561 134.059 322.271 132.659 319.808 129.859C318.716 128.628 318.17 127.312 318.17 125.912C318.17 123.617 319.5 121.377 322.159 119.193C324.735 117.038 328.108 115.316 332.279 114.028C335.583 112.993 338.298 112.475 340.426 112.475C346.501 112.475 349.538 116.87 349.538 125.66ZM397.241 148.756C397.241 149.12 397.045 149.302 396.653 149.302C396.345 149.302 393.84 149.064 389.137 148.588C384.462 148.14 380.57 147.916 377.463 147.916C372.424 147.916 363.563 148.952 350.882 151.023C350.882 149.988 351.288 147.454 352.1 143.423C352.128 143.367 353.331 143.115 355.711 142.667C358.286 142.191 360.064 141.421 361.044 140.357C361.772 139.574 362.696 135.276 363.815 127.466C365.075 118.983 365.705 111.551 365.705 105.168C365.705 99.569 365.131 95.7057 363.983 93.5781C363.731 92.9902 363.158 92.6963 362.262 92.6963C361.618 92.6963 360.764 92.8783 359.7 93.2422C358.636 93.5781 358.021 93.7461 357.853 93.7461C357.377 93.7461 356.551 92.8923 355.375 91.1846C354.227 89.4769 353.653 88.2031 353.653 87.3633C353.653 86.9714 354.171 86.7754 355.207 86.7754C358.958 86.7754 365.047 86.3135 373.474 85.3896C383.132 84.3538 390.229 83.234 394.764 82.0303C394.932 81.8623 395.016 82.5762 395.016 84.1719C395.016 85.6276 394.764 86.4674 394.26 86.6914C390.536 88.2031 388.059 91.3665 386.827 96.1816C386.155 98.9251 385.497 105.308 384.854 115.33C384.742 117.15 384.686 118.745 384.686 120.117C384.686 129.803 385.805 135.878 388.045 138.342C388.689 139.042 389.585 139.392 390.732 139.392C391.544 139.392 392.608 139.182 393.924 138.762C395.268 138.314 396.037 138.09 396.233 138.09C396.485 138.09 396.653 138.496 396.737 139.308C397.073 143.087 397.241 146.236 397.241 148.756ZM460.817 102.942C460.817 106.442 459.824 108.905 457.836 110.333C455.848 111.761 452.349 112.475 447.338 112.475C441.571 112.475 436.896 111.663 433.312 110.039C429.869 108.471 428.147 106.512 428.147 104.16C428.147 102.928 428.637 101.431 429.617 99.667C431.325 96.5596 434.166 94.5859 438.142 93.7461C440.381 93.5221 442.607 93.2842 444.818 93.0322C445.126 92.8643 445.28 92.6683 445.28 92.4443C445.28 91.3525 443.909 90.0368 441.165 88.4971C438.086 86.7614 434.894 85.8936 431.591 85.8936C426.916 85.8936 423.374 87.6712 420.967 91.2266C418.867 94.278 417.817 98.2952 417.817 103.278C417.817 105.742 418.055 108.317 418.531 111.005C420.491 122.623 422.814 130.643 425.502 135.066C427.658 138.65 430.485 140.441 433.984 140.441C435.272 140.441 436.574 140.329 437.89 140.105C442.537 139.294 446.176 137.502 448.808 134.73C450.095 133.387 452.013 130.447 454.561 125.912C454.896 125.688 455.064 125.66 455.064 125.828C455.232 127.2 455.316 128.376 455.316 129.355C455.316 134.311 454.253 138.692 452.125 142.499C449.326 147.51 445.056 150.52 439.317 151.527C434.726 152.339 430.695 152.745 427.224 152.745C408.523 152.745 399.173 140.609 399.173 116.338C399.173 104.58 402.168 95.7197 408.159 89.7568C413.562 84.3818 421.037 81.6943 430.583 81.6943C441.389 81.6943 449.438 84.1439 454.729 89.043C458.788 92.7943 460.817 97.4274 460.817 102.942Z" fill="white"/>
<g id="wheel">
<circle id="Ellipse 1" cx="73.8279" cy="116.081" r="43" transform="rotate(-52.9585 73.8279 116.081)" stroke="white" stroke-width="8"/>
<path id="Vector 4" d="M108.871 84.7654L43.88 147.024L38 140.886L108.871 84.7654Z" fill="white" stroke="white" stroke-linejoin="round"/>
</g>
</svg>
